<?xml version="1.0" encoding="UTF-8"?>
<!DOCTYPE svg PUBLIC "-//W3C//DTD SVG 1.1//EN" "http://www.w3.org/Graphics/SVG/1.1/DTD/svg11.dtd">
<!-- Creator: CorelDRAW 2019 (64-Bit) -->
<svg xmlns="http://www.w3.org/2000/svg" xml:space="preserve" width="8.26772in" height="8.26772in" version="1.1" style="shape-rendering:geometricPrecision; text-rendering:geometricPrecision; image-rendering:optimizeQuality; fill-rule:evenodd; clip-rule:evenodd"
viewBox="0 0 8267.72 8267.72"
 xmlns:xlink="http://www.w3.org/1999/xlink">
 <defs>
  <style type="text/css">
   <![CDATA[
    .str0 {stroke:#2B2A29;stroke-width:6.94;stroke-miterlimit:2.61313}
    .fil1 {fill:none}
    .fil0 {fill:#E31E24}
    .fil2 {fill:#2B2A29;fill-rule:nonzero}
   ]]>
  </style>
    <clipPath id="id0">
     <path d="M4129.44 1582.19l1320.31 2290.41 1320.31 2290.54 -2640.63 0 -2640.63 0 1320.31 -2290.54 1320.31 -2290.41z"/>
    </clipPath>
 </defs>
 <g id="Layer_x0020_1">
  <metadata id="CorelCorpID_0Corel-Layer"/>
  <g id="_1623659871536">
   <g>
   </g>
   <g style="clip-path:url(#id0)">
    <g id="_1623659873168">
     <rect class="fil0 str0" x="1534.58" y="5521.64" width="439.14" height="430.13"/>
     <rect class="fil0" transform="matrix(3.38753 -2.02688 8.97719 15.0036 2605.71 3644.8)" width="112.21" height="186.15"/>
     <rect class="fil0" transform="matrix(3.38753 -2.02688 8.97719 15.0036 1881.57 4184.35)" width="112.21" height="186.15"/>
     <rect class="fil0" transform="matrix(1.04551E-13 -3.94761 17.4842 4.60359E-13 27.1387 6177.75)" width="112.21" height="186.15"/>
     <rect class="fil0" transform="matrix(3.38753 -2.02688 8.97719 15.0036 863.855 4203.77)" width="112.21" height="186.15"/>
     <rect class="fil0" transform="matrix(3.38751 2.0269 -8.97728 15.0035 5054.39 64.2598)" width="112.21" height="186.15"/>
     <rect class="fil0" transform="matrix(3.38751 2.0269 -8.97728 15.0035 8248.11 -3129.46)" width="112.21" height="186.15"/>
     <rect class="fil0" transform="matrix(3.38751 2.0269 -8.97728 15.0035 5823.57 1258.2)" width="112.21" height="186.15"/>
     <rect class="fil0" transform="matrix(0.0421664 3.94738 -17.4832 0.186757 7642.05 3805.7)" width="112.21" height="186.15"/>
     <rect class="fil0" transform="matrix(3.38751 2.0269 -2.6823 4.48285 2880.47 3735.64)" width="112.21" height="186.15"/>
     <rect class="fil0" transform="matrix(3.90367 -2.38114 10.3452 17.6256 2742.61 221.223)" width="112.21" height="186.15"/>
     <rect class="fil0" transform="matrix(3.90367 -2.38114 10.3452 17.6256 4999.61 4109.83)" width="112.21" height="186.15"/>
     <rect class="fil0" transform="matrix(3.38751 -2.0269 15.8562 26.5002 2940.94 2334.1)" width="112.21" height="186.15"/>
    </g>
   </g>
   <polygon class="fil1" points="4129.44,1582.19 5449.76,3872.6 6770.07,6163.13 4129.44,6163.13 1488.81,6163.13 2809.13,3872.6 "/>
   <path class="fil2" d="M1482.08 6766.05l0 -373.95 0 0 52.29 0 0 0 202.22 0c71.11,0 117.06,6.17 137.94,18.61 20.87,12.44 31.31,39.99 31.31,82.53 0,38.93 -10.44,64.13 -31.41,75.52 -5.76,3.19 -13.46,5.85 -23.21,8.08l0 0c15.31,2.98 26.53,6.59 33.75,10.95 21.36,11.91 31.99,38.08 31.99,78.7 0,35.1 -8.48,60.52 -25.56,76.15 -17.07,15.63 -44.78,23.4 -83.11,23.4l-273.92 0 0 0 -52.29 0zm104.77 -287.8l0 59.99 0 0 149.74 0c29.27,0 47.31,-1.49 54.14,-4.47 6.93,-2.98 10.34,-10.96 10.34,-23.93 0,-12.23 -3.31,-20.53 -9.85,-25 -6.63,-4.36 -19.11,-6.59 -37.36,-6.59l-167 0zm0 141.03l0 59.98 0 0 187 0c14.83,0 24.97,-2.02 30.33,-5.96 5.37,-4.04 8,-11.48 8,-22.65 0,-14.25 -3.61,-22.97 -10.93,-26.38 -7.22,-3.3 -26.24,-5 -56.97,-5l-157.44 0zm619.25 150.6c-104.96,0 -169.84,-9.68 -194.52,-29.14 -24.68,-19.36 -37.07,-70.41 -37.26,-153.05 0.19,-90.3 12.58,-146.13 37.26,-167.41 24.68,-21.38 89.55,-32.01 194.52,-32.01 105.16,0 170.13,10.63 194.81,31.8 24.68,21.27 36.97,76.37 36.97,165.39l0 2.23c0.2,82.64 -12.09,133.69 -36.87,153.05 -24.78,19.46 -89.74,29.14 -194.91,29.14zm0 -95.72c58.33,0 94.13,-4.68 107.31,-14.04 13.17,-9.36 19.7,-34.88 19.7,-76.57 0,-45.73 -6.54,-73.81 -19.7,-84.13 -13.17,-10.31 -48.97,-15.42 -107.31,-15.42 -58.33,0 -94.13,5.11 -107.3,15.42 -13.17,10.32 -19.71,38.4 -19.71,84.13 0,41.69 6.54,67.22 19.71,76.57 13.17,9.36 48.97,14.04 107.3,14.04zm402.2 91.89l0 0 -52.19 0 -52.58 0 0 0 0 -373.95 0 0 83.7 0 83.99 0 0 0 119.89 223.78 -0.1 0 0 0 119.59 -223.78 0 0 83.7 0 83.99 0 0 0 0 373.95 0 0 -52.19 0 -52.58 0 0 0 0 -266.74 -0.1 0 -142.62 266.74 -39.7 0 -39.8 0 -142.81 -267.38 -0.19 0 0 267.38zm543.35 0l0 -373.95 0 0 52.29 0 0 0 202.22 0c71.12,0 117.06,6.17 137.94,18.61 20.88,12.44 31.31,39.99 31.31,82.53 0,38.93 -10.44,64.13 -31.41,75.52 -5.76,3.19 -13.46,5.85 -23.22,8.08l0 0c15.31,2.98 26.54,6.59 33.75,10.95 21.36,11.91 31.99,38.08 31.99,78.7 0,35.1 -8.48,60.52 -25.56,76.15 -17.07,15.63 -44.78,23.4 -83.11,23.4l-273.92 0 0 0 -52.29 0zm104.77 -287.8l0 59.99 0 0 149.74 0c29.27,0 47.31,-1.49 54.14,-4.47 6.93,-2.98 10.34,-10.96 10.34,-23.93 0,-12.23 -3.32,-20.53 -9.85,-25 -6.63,-4.36 -19.12,-6.59 -37.36,-6.59l-167 0zm0 141.03l0 59.98 0 0 187 0c14.83,0 24.97,-2.02 30.33,-5.96 5.37,-4.04 8,-11.48 8,-22.65 0,-14.25 -3.61,-22.97 -10.93,-26.38 -7.22,-3.3 -26.24,-5 -56.97,-5l-157.44 0zm371.08 146.77l189.24 -373.95 66.72 0 66.72 0 189.15 373.95 0 0 -59.7 0 -59.8 0 0 0 -30.63 -65.09 0 0 -208.95 0 0 0 -32 65.09 0 0 -60.29 0 -60.48 0zm258.41 -280.46l-63.41 129.22 0 0 125.74 0 0 0 -62.14 -129.22 -0.2 0zm466.39 145.81l0 0 -194.91 -239.3 0 0 67.99 0 68.09 0 0 0 113.35 150.92 -0.1 0.32 110.92 -151.24 0 0 66.92 0 67.11 0 0 0 -194.61 241.22 0 0 0 132.73 -52.19 0 -52.58 0 0 -134.65zm410.59 134.65l-98.62 -373.95 0 0 50.24 0 50.53 0 0 0 64.19 265.79 0.29 0 0 0 93.06 -265.79 56.68 0 56.58 0 98.43 268.66 -0.09 0 0 0 59.99 -268.66 0 0 50.24 0 50.63 0 0 0 -95.5 373.95 -63.11 0 -63.21 0 -94.92 -254.62 0.1 0 0 0 -89.16 254.62 -63.21 0 -63.11 0zm555.94 0l189.25 -373.95 66.72 0 66.72 0 189.15 373.95 0 0 -59.7 0 -59.8 0 0 0 -30.63 -65.09 0 0 -208.95 0 0 0 -32 65.09 0 0 -60.29 0 -60.48 0zm258.41 -280.46l-63.41 129.22 0 0 125.74 0 0 0 -62.14 -129.22 -0.19 0zm311.87 280.46l0 0 0 -373.95 0 0 52.29 0 52.48 0 0 0 0 277.59 0 0 230.02 0 0 0 0 47.96 0 48.39 0 0 -334.8 0zm362.31 0l189.24 -373.95 66.72 0 66.72 0 189.15 373.95 0 0 -59.7 0 -59.8 0 0 0 -30.63 -65.09 0 0 -208.95 0 0 0 -32 65.09 0 0 -60.29 0 -60.48 0zm258.41 -280.46l-63.41 129.22 0 0 125.74 0 0 0 -62.14 -129.22 -0.2 0z"/>
  </g>
 </g>
</svg>
